<svg xmlns="http://www.w3.org/2000/svg" xmlns:xlink="http://www.w3.org/1999/xlink" id="Capa_1" x="0" y="0" version="1.1" viewBox="0 0 512 512" xml:space="preserve" style="enable-background:new 0 0 512 512"><polygon style="fill:#ff0021" points="439.73 130.83 512 256 384 477.7 272.53 477.7 272.53 70.83"/><polygon style="fill:#009ad2" points="439.73 130.83 384 34.3 256 34.3 111.47 256 328.27 130.83"/><polygon style="fill:#ffb037" points="272.53 477.7 328.26 381.17 196 166.171 256 477.7"/><polygon style="fill:#ffd237" points="55.73 159.47 0 256 128 477.7 256 477.7 256 159.47"/><polygon style="fill:#00b8fa" points="256 130.83 256 34.3 128 34.3 55.73 159.47 111.47 256"/><polygon style="fill:#d1dee4" points="328.27 130.83 256 130.83 161 256 256 381.17 328.27 381.17 400.53 256"/><g><polygon style="fill:#eff6f9" points="183.73 130.83 111.47 256 183.73 381.17 256 381.17 256 130.83"/><path style="fill:#eff6f9" d="M256,206l-38.281,50L256,306c27.614,0,50-22.386,50-50S283.614,206,256,206z"/></g><path style="fill:#fff" d="M206,256c0,27.614,22.386,50,50,50V206C228.386,206,206,228.386,206,256z"/></svg>